<svg xmlns="http://www.w3.org/2000/svg" xmlns:xlink="http://www.w3.org/1999/xlink" width="940" zoomAndPan="magnify" viewBox="0 0 705 591.000005" height="788" preserveAspectRatio="xMidYMid meet" version="1.0"><defs><g/><clipPath id="325cd5b5d5"><path d="M 176.636719 221.558594 L 546.40625 221.558594 L 546.40625 345.296875 L 176.636719 345.296875 Z M 176.636719 221.558594 " clip-rule="nonzero"/></clipPath><clipPath id="870fa3b634"><path d="M 187.867188 221.558594 L 535.003906 221.558594 C 537.984375 221.558594 540.839844 222.742188 542.945312 224.847656 C 545.054688 226.953125 546.238281 229.808594 546.238281 232.789062 L 546.238281 334.066406 C 546.238281 337.042969 545.054688 339.902344 542.945312 342.007812 C 540.839844 344.113281 537.984375 345.296875 535.003906 345.296875 L 187.867188 345.296875 C 184.890625 345.296875 182.03125 344.113281 179.925781 342.007812 C 177.820312 339.902344 176.636719 337.042969 176.636719 334.066406 L 176.636719 232.789062 C 176.636719 229.808594 177.820312 226.953125 179.925781 224.847656 C 182.03125 222.742188 184.890625 221.558594 187.867188 221.558594 Z M 187.867188 221.558594 " clip-rule="nonzero"/></clipPath><clipPath id="a1482eec2f"><path d="M 176.636719 221.558594 L 546.511719 221.558594 L 546.511719 345.097656 L 176.636719 345.097656 Z M 176.636719 221.558594 " clip-rule="nonzero"/></clipPath><clipPath id="ace2e6cc0b"><path d="M 187.882812 221.558594 L 534.988281 221.558594 C 537.964844 221.558594 540.820312 222.738281 542.925781 224.847656 C 545.035156 226.953125 546.214844 229.808594 546.214844 232.785156 L 546.214844 334.054688 C 546.214844 337.035156 545.035156 339.890625 542.925781 341.996094 C 540.820312 344.101562 537.964844 345.285156 534.988281 345.285156 L 187.882812 345.285156 C 184.902344 345.285156 182.046875 344.101562 179.941406 341.996094 C 177.835938 339.890625 176.652344 337.035156 176.652344 334.054688 L 176.652344 232.785156 C 176.652344 229.808594 177.835938 226.953125 179.941406 224.847656 C 182.046875 222.738281 184.902344 221.558594 187.882812 221.558594 Z M 187.882812 221.558594 " clip-rule="nonzero"/></clipPath><clipPath id="8d28d48523"><path d="M 238 230.414062 L 261 230.414062 L 261 253 L 238 253 Z M 238 230.414062 " clip-rule="nonzero"/></clipPath><clipPath id="e65cfacbbe"><path d="M 197.042969 254 L 277.90625 254 L 277.90625 327 L 197.042969 327 Z M 197.042969 254 " clip-rule="nonzero"/></clipPath></defs><g clip-path="url(#325cd5b5d5)"><g clip-path="url(#870fa3b634)"><path fill="#ffffff" d="M 176.636719 221.558594 L 546.40625 221.558594 L 546.40625 345.296875 L 176.636719 345.296875 Z M 176.636719 221.558594 " fill-opacity="1" fill-rule="nonzero"/></g></g><g clip-path="url(#a1482eec2f)"><g clip-path="url(#ace2e6cc0b)"><path stroke-linecap="butt" transform="matrix(0.748733, 0, 0, 0.748733, 176.65094, 221.557042)" fill="none" stroke-linejoin="miter" d="M 15.00117 0.00207248 L 478.591569 0.00207248 C 482.567035 0.00207248 486.380768 1.577651 489.19281 4.39491 C 492.010069 7.206951 493.585647 11.020685 493.585647 14.996151 L 493.585647 150.250667 C 493.585647 154.23135 492.010069 158.045084 489.19281 160.857126 C 486.380768 163.669168 482.567035 165.249963 478.591569 165.249963 L 15.00117 165.249963 C 11.020488 165.249963 7.206754 163.669168 4.394712 160.857126 C 1.58267 158.045084 0.0018747 154.23135 0.0018747 150.250667 L 0.0018747 14.996151 C 0.0018747 11.020685 1.58267 7.206951 4.394712 4.39491 C 7.206754 1.577651 11.020488 0.00207248 15.00117 0.00207248 Z M 15.00117 0.00207248 " stroke="#000000" stroke-width="2" stroke-opacity="1" stroke-miterlimit="4"/></g></g><g clip-path="url(#8d28d48523)"><path fill="#000000" d="M 260.335938 230.414062 C 260.335938 242.636719 250.425781 252.542969 238.207031 252.550781 C 238.207031 240.324219 248.113281 230.414062 260.335938 230.414062 Z M 260.335938 230.414062 " fill-opacity="1" fill-rule="nonzero"/></g><g clip-path="url(#e65cfacbbe)"><path fill="#000000" d="M 258.71875 281.726562 C 258.71875 273.882812 264.378906 267.21875 272.285156 264.699219 C 267.277344 258.496094 260.007812 254.5625 251.882812 254.5625 C 246.621094 254.5625 241.105469 257.605469 241.105469 257.605469 C 239.511719 258.484375 236.902344 258.484375 235.304688 257.605469 C 235.304688 257.605469 229.792969 254.5625 224.53125 254.5625 C 209.429688 254.5625 197.179688 268.074219 197.183594 284.746094 C 197.183594 308.066406 207.894531 327 221.113281 327 C 227.441406 327 235.195312 323.339844 235.195312 323.339844 C 236.855469 322.554688 239.566406 322.554688 241.21875 323.339844 C 241.21875 323.339844 248.96875 327 255.296875 327 C 265.515625 327 274.207031 315.675781 277.640625 299.765625 C 267.054688 299.050781 258.71875 291.253906 258.71875 281.726562 Z M 255.300781 318.953125 C 251.882812 318.953125 246.652344 317.003906 244.65625 316.058594 C 242.28125 314.933594 239.839844 314.699219 238.207031 314.699219 C 236.578125 314.699219 234.136719 314.933594 231.765625 316.058594 C 229.375 317.175781 224.363281 318.953125 221.113281 318.953125 C 213.613281 318.953125 205.230469 304.324219 205.230469 284.746094 C 205.230469 278.683594 207.332031 273.027344 211.15625 268.808594 C 214.777344 264.8125 219.527344 262.609375 224.53125 262.609375 C 227.15625 262.609375 230.6875 264.246094 231.425781 264.652344 C 233.910156 266.023438 236.484375 266.3125 238.207031 266.3125 C 239.925781 266.3125 242.5 266.023438 244.988281 264.652344 C 246.433594 263.875 249.617188 262.609375 251.882812 262.609375 C 254.125 262.609375 256.304688 263.050781 258.351562 263.890625 C 253.527344 268.632812 250.671875 274.960938 250.671875 281.726562 C 250.671875 292.238281 257.578125 301.449219 267.539062 305.574219 C 264.441406 313.554688 259.707031 318.953125 255.300781 318.953125 Z M 255.300781 318.953125 " fill-opacity="1" fill-rule="nonzero"/></g><g fill="#000000" fill-opacity="1"><g transform="translate(292.344723, 280.762628)"><g><path d="M 19.59375 0.53125 C 16.46875 0.53125 13.710938 -0.179688 11.328125 -1.609375 C 8.941406 -3.035156 7.078125 -5.179688 5.734375 -8.046875 C 4.390625 -10.921875 3.71875 -14.445312 3.71875 -18.625 C 3.71875 -22.800781 4.4375 -26.328125 5.875 -29.203125 C 7.3125 -32.078125 9.300781 -34.226562 11.84375 -35.65625 C 14.394531 -37.082031 17.335938 -37.796875 20.671875 -37.796875 C 24.234375 -37.796875 27.160156 -37.148438 29.453125 -35.859375 C 31.742188 -34.578125 33.367188 -32.664062 34.328125 -30.125 L 31.46875 -28.4375 L 30.828125 -28.4375 C 29.859375 -30.375 28.550781 -31.757812 26.90625 -32.59375 C 25.257812 -33.4375 23.179688 -33.859375 20.671875 -33.859375 C 12.492188 -33.859375 8.40625 -28.78125 8.40625 -18.625 C 8.40625 -13.34375 9.429688 -9.488281 11.484375 -7.0625 C 13.546875 -4.632812 16.425781 -3.421875 20.125 -3.421875 C 23.53125 -3.421875 26.078125 -4.191406 27.765625 -5.734375 C 29.453125 -7.273438 30.296875 -9.710938 30.296875 -13.046875 L 30.296875 -16.328125 L 19.703125 -16.328125 L 19.703125 -19.84375 L 34.546875 -19.84375 L 34.546875 0 L 30.5 0 L 30.5 -5 L 29.96875 -5.125 C 28.976562 -3.207031 27.601562 -1.785156 25.84375 -0.859375 C 24.09375 0.0664062 22.007812 0.53125 19.59375 0.53125 Z M 19.59375 0.53125 "/></g></g></g><g fill="#000000" fill-opacity="1"><g transform="translate(331.075473, 280.762628)"><g><path d="M 26.78125 -13.09375 L 7.46875 -13.09375 C 7.582031 -9.675781 8.398438 -7.171875 9.921875 -5.578125 C 11.441406 -3.984375 13.53125 -3.1875 16.1875 -3.1875 C 18.1875 -3.1875 19.796875 -3.539062 21.015625 -4.25 C 22.242188 -4.96875 23.207031 -6.09375 23.90625 -7.625 L 24.4375 -7.625 L 27.140625 -6.015625 C 26.328125 -3.972656 25.019531 -2.367188 23.21875 -1.203125 C 21.425781 -0.046875 19.082031 0.53125 16.1875 0.53125 C 13.46875 0.53125 11.128906 0 9.171875 -1.0625 C 7.222656 -2.132812 5.71875 -3.757812 4.65625 -5.9375 C 3.601562 -8.113281 3.078125 -10.816406 3.078125 -14.046875 C 3.078125 -17.234375 3.632812 -19.921875 4.75 -22.109375 C 5.863281 -24.304688 7.382812 -25.941406 9.3125 -27.015625 C 11.238281 -28.097656 13.441406 -28.640625 15.921875 -28.640625 C 19.523438 -28.640625 22.335938 -27.625 24.359375 -25.59375 C 26.378906 -23.5625 27.398438 -20.550781 27.421875 -16.5625 C 27.421875 -15 27.382812 -13.945312 27.3125 -13.40625 Z M 23.3125 -16.5625 C 23.25 -19.550781 22.585938 -21.722656 21.328125 -23.078125 C 20.066406 -24.441406 18.265625 -25.125 15.921875 -25.125 C 13.460938 -25.125 11.53125 -24.4375 10.125 -23.0625 C 8.726562 -21.695312 7.875 -19.53125 7.5625 -16.5625 Z M 23.3125 -16.5625 "/></g></g></g><g fill="#000000" fill-opacity="1"><g transform="translate(361.040842, 280.762628)"><g><path d="M 19.015625 -4.453125 L 20.328125 -1.484375 C 19.671875 -0.816406 18.800781 -0.316406 17.71875 0.015625 C 16.644531 0.359375 15.476562 0.53125 14.21875 0.53125 C 8.851562 0.53125 6.171875 -2.1875 6.171875 -7.625 L 6.171875 -24.71875 L 1.28125 -24.71875 L 1.28125 -28.125 L 6.171875 -28.125 L 6.171875 -34.0625 L 10.3125 -34.75 L 10.3125 -28.125 L 19.359375 -28.125 L 19.359375 -24.71875 L 10.3125 -24.71875 L 10.3125 -8.03125 C 10.3125 -4.800781 11.71875 -3.1875 14.53125 -3.1875 C 16.050781 -3.1875 17.363281 -3.609375 18.46875 -4.453125 Z M 19.015625 -4.453125 "/></g></g></g><g fill="#000000" fill-opacity="1"><g transform="translate(382.444677, 280.762628)"><g/></g></g><g fill="#000000" fill-opacity="1"><g transform="translate(395.236016, 280.762628)"><g><path d="M 6.984375 -33.53125 C 6.097656 -33.53125 5.378906 -33.804688 4.828125 -34.359375 C 4.273438 -34.910156 4 -35.613281 4 -36.46875 C 4 -37.3125 4.273438 -38.007812 4.828125 -38.5625 C 5.378906 -39.113281 6.097656 -39.390625 6.984375 -39.390625 C 7.867188 -39.390625 8.585938 -39.113281 9.140625 -38.5625 C 9.691406 -38.007812 9.96875 -37.3125 9.96875 -36.46875 C 9.96875 -35.613281 9.691406 -34.910156 9.140625 -34.359375 C 8.585938 -33.804688 7.867188 -33.53125 6.984375 -33.53125 Z M 4.890625 0 L 4.890625 -28.109375 L 9.046875 -28.109375 L 9.046875 0 Z M 4.890625 0 "/></g></g></g><g fill="#000000" fill-opacity="1"><g transform="translate(409.173996, 280.762628)"><g><path d="M 4.890625 0 L 4.890625 -28.109375 L 8.84375 -28.109375 L 8.84375 -23.703125 L 9.375 -23.578125 C 10.3125 -25.222656 11.503906 -26.476562 12.953125 -27.34375 C 14.410156 -28.207031 16.179688 -28.640625 18.265625 -28.640625 C 21.648438 -28.640625 24.101562 -27.773438 25.625 -26.046875 C 27.144531 -24.328125 27.90625 -21.675781 27.90625 -18.09375 L 27.90625 0 L 23.75 0 L 23.75 -17.984375 C 23.75 -19.679688 23.53125 -21.046875 23.09375 -22.078125 C 22.664062 -23.109375 21.992188 -23.859375 21.078125 -24.328125 C 20.171875 -24.796875 18.976562 -25.03125 17.5 -25.03125 C 14.96875 -25.03125 12.925781 -24.191406 11.375 -22.515625 C 9.820312 -20.835938 9.046875 -18.140625 9.046875 -14.421875 L 9.046875 0 Z M 4.890625 0 "/></g></g></g><g fill="#000000" fill-opacity="1"><g transform="translate(441.534556, 280.762628)"><g/></g></g><g fill="#000000" fill-opacity="1"><g transform="translate(454.325896, 280.762628)"><g><path d="M 16.125 0.53125 C 13.476562 0.53125 11.171875 -0.0234375 9.203125 -1.140625 C 7.242188 -2.265625 5.734375 -3.914062 4.671875 -6.09375 C 3.609375 -8.28125 3.078125 -10.929688 3.078125 -14.046875 C 3.078125 -17.148438 3.609375 -19.796875 4.671875 -21.984375 C 5.734375 -24.179688 7.242188 -25.835938 9.203125 -26.953125 C 11.171875 -28.078125 13.476562 -28.640625 16.125 -28.640625 C 18.78125 -28.640625 21.085938 -28.078125 23.046875 -26.953125 C 25.003906 -25.835938 26.515625 -24.179688 27.578125 -21.984375 C 28.640625 -19.796875 29.171875 -17.148438 29.171875 -14.046875 C 29.171875 -10.929688 28.640625 -8.28125 27.578125 -6.09375 C 26.515625 -3.914062 25.003906 -2.265625 23.046875 -1.140625 C 21.085938 -0.0234375 18.78125 0.53125 16.125 0.53125 Z M 16.125 -3.1875 C 18.925781 -3.1875 21.070312 -4.066406 22.5625 -5.828125 C 24.050781 -7.597656 24.796875 -10.335938 24.796875 -14.046875 C 24.796875 -17.765625 24.050781 -20.503906 22.5625 -22.265625 C 21.070312 -24.035156 18.925781 -24.921875 16.125 -24.921875 C 13.320312 -24.921875 11.171875 -24.03125 9.671875 -22.25 C 8.179688 -20.476562 7.4375 -17.742188 7.4375 -14.046875 C 7.4375 -10.335938 8.179688 -7.597656 9.671875 -5.828125 C 11.171875 -4.066406 13.320312 -3.1875 16.125 -3.1875 Z M 16.125 -3.1875 "/></g></g></g><g fill="#000000" fill-opacity="1"><g transform="translate(486.584533, 280.762628)"><g><path d="M 4.890625 0 L 4.890625 -28.109375 L 8.84375 -28.109375 L 8.84375 -23.703125 L 9.375 -23.578125 C 10.3125 -25.222656 11.503906 -26.476562 12.953125 -27.34375 C 14.410156 -28.207031 16.179688 -28.640625 18.265625 -28.640625 C 21.648438 -28.640625 24.101562 -27.773438 25.625 -26.046875 C 27.144531 -24.328125 27.90625 -21.675781 27.90625 -18.09375 L 27.90625 0 L 23.75 0 L 23.75 -17.984375 C 23.75 -19.679688 23.53125 -21.046875 23.09375 -22.078125 C 22.664062 -23.109375 21.992188 -23.859375 21.078125 -24.328125 C 20.171875 -24.796875 18.976562 -25.03125 17.5 -25.03125 C 14.96875 -25.03125 12.925781 -24.191406 11.375 -22.515625 C 9.820312 -20.835938 9.046875 -18.140625 9.046875 -14.421875 L 9.046875 0 Z M 4.890625 0 "/></g></g></g><g fill="#000000" fill-opacity="1"><g transform="translate(518.953097, 280.762628)"><g/></g></g><g fill="#000000" fill-opacity="1"><g transform="translate(284.957477, 323.707854)"><g><path d="M 35.75 0 L 28 0 L 25.203125 -8.59375 L 10.9375 -8.59375 L 8.125 0 L 0.5625 0 L 13.421875 -37.25 L 22.890625 -37.25 Z M 17.703125 -29.484375 L 12.921875 -14.78125 L 23.15625 -14.78125 L 18.34375 -29.484375 Z M 17.703125 -29.484375 "/></g></g></g><g fill="#000000" fill-opacity="1"><g transform="translate(321.267561, 323.707854)"><g><path d="M 4.046875 11.390625 L 4.046875 -28.109375 L 11.109375 -28.109375 L 11.109375 -24.4375 L 11.640625 -24.328125 C 12.472656 -25.753906 13.585938 -26.828125 14.984375 -27.546875 C 16.378906 -28.273438 18.007812 -28.640625 19.875 -28.640625 C 22.132812 -28.640625 24.109375 -28.101562 25.796875 -27.03125 C 27.492188 -25.96875 28.8125 -24.34375 29.75 -22.15625 C 30.695312 -19.96875 31.171875 -17.265625 31.171875 -14.046875 C 31.171875 -10.828125 30.671875 -8.128906 29.671875 -5.953125 C 28.679688 -3.785156 27.300781 -2.160156 25.53125 -1.078125 C 23.769531 -0.00390625 21.734375 0.53125 19.421875 0.53125 C 17.671875 0.53125 16.15625 0.238281 14.875 -0.34375 C 13.601562 -0.925781 12.523438 -1.835938 11.640625 -3.078125 L 11.109375 -2.984375 L 11.109375 11.390625 Z M 17.453125 -5.453125 C 19.554688 -5.453125 21.148438 -6.140625 22.234375 -7.515625 C 23.328125 -8.890625 23.875 -11.066406 23.875 -14.046875 C 23.875 -17.015625 23.328125 -19.191406 22.234375 -20.578125 C 21.148438 -21.960938 19.554688 -22.65625 17.453125 -22.65625 C 15.484375 -22.65625 13.921875 -21.941406 12.765625 -20.515625 C 11.609375 -19.085938 11.03125 -16.929688 11.03125 -14.046875 C 11.03125 -11.171875 11.609375 -9.019531 12.765625 -7.59375 C 13.921875 -6.164062 15.484375 -5.453125 17.453125 -5.453125 Z M 17.453125 -5.453125 "/></g></g></g><g fill="#000000" fill-opacity="1"><g transform="translate(354.927646, 323.707854)"><g><path d="M 4.046875 11.390625 L 4.046875 -28.109375 L 11.109375 -28.109375 L 11.109375 -24.4375 L 11.640625 -24.328125 C 12.472656 -25.753906 13.585938 -26.828125 14.984375 -27.546875 C 16.378906 -28.273438 18.007812 -28.640625 19.875 -28.640625 C 22.132812 -28.640625 24.109375 -28.101562 25.796875 -27.03125 C 27.492188 -25.96875 28.8125 -24.34375 29.75 -22.15625 C 30.695312 -19.96875 31.171875 -17.265625 31.171875 -14.046875 C 31.171875 -10.828125 30.671875 -8.128906 29.671875 -5.953125 C 28.679688 -3.785156 27.300781 -2.160156 25.53125 -1.078125 C 23.769531 -0.00390625 21.734375 0.53125 19.421875 0.53125 C 17.671875 0.53125 16.15625 0.238281 14.875 -0.34375 C 13.601562 -0.925781 12.523438 -1.835938 11.640625 -3.078125 L 11.109375 -2.984375 L 11.109375 11.390625 Z M 17.453125 -5.453125 C 19.554688 -5.453125 21.148438 -6.140625 22.234375 -7.515625 C 23.328125 -8.890625 23.875 -11.066406 23.875 -14.046875 C 23.875 -17.015625 23.328125 -19.191406 22.234375 -20.578125 C 21.148438 -21.960938 19.554688 -22.65625 17.453125 -22.65625 C 15.484375 -22.65625 13.921875 -21.941406 12.765625 -20.515625 C 11.609375 -19.085938 11.03125 -16.929688 11.03125 -14.046875 C 11.03125 -11.171875 11.609375 -9.019531 12.765625 -7.59375 C 13.921875 -6.164062 15.484375 -5.453125 17.453125 -5.453125 Z M 17.453125 -5.453125 "/></g></g></g><g fill="#000000" fill-opacity="1"><g transform="translate(388.587732, 323.707854)"><g/></g></g><g fill="#000000" fill-opacity="1"><g transform="translate(400.894943, 323.707854)"><g><path d="M 13.15625 0.53125 C 11.226562 0.53125 9.46875 0.304688 7.875 -0.140625 C 6.28125 -0.585938 4.914062 -1.207031 3.78125 -2 C 2.65625 -2.789062 1.820312 -3.695312 1.28125 -4.71875 L 5.203125 -8.9375 L 5.734375 -8.9375 C 6.671875 -7.6875 7.773438 -6.742188 9.046875 -6.109375 C 10.316406 -5.484375 11.703125 -5.171875 13.203125 -5.171875 C 14.578125 -5.171875 15.613281 -5.414062 16.3125 -5.90625 C 17.007812 -6.40625 17.359375 -7.113281 17.359375 -8.03125 C 17.359375 -8.738281 17.101562 -9.332031 16.59375 -9.8125 C 16.09375 -10.300781 15.285156 -10.679688 14.171875 -10.953125 L 10.453125 -11.84375 C 7.660156 -12.507812 5.625 -13.523438 4.34375 -14.890625 C 3.0625 -16.265625 2.421875 -18.003906 2.421875 -20.109375 C 2.421875 -21.859375 2.863281 -23.378906 3.75 -24.671875 C 4.644531 -25.960938 5.90625 -26.945312 7.53125 -27.625 C 9.15625 -28.300781 11.046875 -28.640625 13.203125 -28.640625 C 15.734375 -28.640625 17.828125 -28.273438 19.484375 -27.546875 C 21.148438 -26.816406 22.453125 -25.835938 23.390625 -24.609375 L 19.625 -20.53125 L 19.109375 -20.53125 C 18.328125 -21.414062 17.445312 -22.0625 16.46875 -22.46875 C 15.5 -22.882812 14.410156 -23.09375 13.203125 -23.09375 C 10.410156 -23.09375 9.015625 -22.222656 9.015625 -20.484375 C 9.015625 -19.753906 9.273438 -19.160156 9.796875 -18.703125 C 10.316406 -18.242188 11.226562 -17.867188 12.53125 -17.578125 L 16 -16.8125 C 18.851562 -16.207031 20.9375 -15.226562 22.25 -13.875 C 23.570312 -12.519531 24.234375 -10.707031 24.234375 -8.4375 C 24.234375 -6.65625 23.789062 -5.082031 22.90625 -3.71875 C 22.019531 -2.363281 20.742188 -1.316406 19.078125 -0.578125 C 17.421875 0.160156 15.445312 0.53125 13.15625 0.53125 Z M 13.15625 0.53125 "/></g></g></g><g fill="#000000" fill-opacity="1"><g transform="translate(426.808879, 323.707854)"><g><path d="M 19.390625 -6.703125 L 21.234375 -1.484375 C 20.460938 -0.847656 19.5 -0.351562 18.34375 0 C 17.1875 0.351562 15.878906 0.53125 14.421875 0.53125 C 11.378906 0.53125 9.066406 -0.296875 7.484375 -1.953125 C 5.910156 -3.609375 5.125 -6.015625 5.125 -9.171875 L 5.125 -22.53125 L 0.84375 -22.53125 L 0.84375 -28.125 L 5.125 -28.125 L 5.125 -33.609375 L 12.1875 -34.75 L 12.1875 -28.125 L 20.15625 -28.125 L 20.15625 -22.53125 L 12.1875 -22.53125 L 12.1875 -9.6875 C 12.1875 -8.289062 12.472656 -7.273438 13.046875 -6.640625 C 13.617188 -6.003906 14.457031 -5.6875 15.5625 -5.6875 C 16.820312 -5.6875 17.921875 -6.023438 18.859375 -6.703125 Z M 19.390625 -6.703125 "/></g></g></g><g fill="#000000" fill-opacity="1"><g transform="translate(448.645893, 323.707854)"><g><path d="M 16.328125 0.53125 C 13.578125 0.53125 11.160156 -0.03125 9.078125 -1.15625 C 7.003906 -2.289062 5.390625 -3.945312 4.234375 -6.125 C 3.085938 -8.3125 2.515625 -10.953125 2.515625 -14.046875 C 2.515625 -17.128906 3.085938 -19.765625 4.234375 -21.953125 C 5.390625 -24.148438 7.003906 -25.8125 9.078125 -26.9375 C 11.160156 -28.070312 13.578125 -28.640625 16.328125 -28.640625 C 19.085938 -28.640625 21.503906 -28.070312 23.578125 -26.9375 C 25.660156 -25.8125 27.28125 -24.148438 28.4375 -21.953125 C 29.59375 -19.765625 30.171875 -17.128906 30.171875 -14.046875 C 30.171875 -10.953125 29.59375 -8.3125 28.4375 -6.125 C 27.28125 -3.945312 25.660156 -2.289062 23.578125 -1.15625 C 21.503906 -0.03125 19.085938 0.53125 16.328125 0.53125 Z M 16.328125 -5.453125 C 20.703125 -5.453125 22.890625 -8.316406 22.890625 -14.046875 C 22.890625 -17.015625 22.328125 -19.191406 21.203125 -20.578125 C 20.078125 -21.960938 18.453125 -22.65625 16.328125 -22.65625 C 11.960938 -22.65625 9.78125 -19.785156 9.78125 -14.046875 C 9.78125 -8.316406 11.960938 -5.453125 16.328125 -5.453125 Z M 16.328125 -5.453125 "/></g></g></g><g fill="#000000" fill-opacity="1"><g transform="translate(481.312223, 323.707854)"><g><path d="M 4.046875 0 L 4.046875 -28.109375 L 10.90625 -28.109375 L 10.90625 -23.921875 L 11.4375 -23.828125 C 12.113281 -25.390625 13.003906 -26.535156 14.109375 -27.265625 C 15.222656 -27.992188 16.566406 -28.359375 18.140625 -28.359375 C 19.734375 -28.359375 20.945312 -28.085938 21.78125 -27.546875 L 20.59375 -21.453125 L 20.046875 -21.359375 C 19.585938 -21.546875 19.144531 -21.679688 18.71875 -21.765625 C 18.300781 -21.847656 17.785156 -21.890625 17.171875 -21.890625 C 15.203125 -21.890625 13.695312 -21.195312 12.65625 -19.8125 C 11.625 -18.425781 11.109375 -16.207031 11.109375 -13.15625 L 11.109375 0 Z M 4.046875 0 "/></g></g></g><g fill="#000000" fill-opacity="1"><g transform="translate(503.353083, 323.707854)"><g><path d="M 27.78125 -12.453125 L 9.703125 -12.453125 C 9.910156 -10.015625 10.609375 -8.238281 11.796875 -7.125 C 12.984375 -6.007812 14.609375 -5.453125 16.671875 -5.453125 C 18.285156 -5.453125 19.59375 -5.753906 20.59375 -6.359375 C 21.59375 -6.960938 22.398438 -7.875 23.015625 -9.09375 L 23.546875 -9.09375 L 28.234375 -6.09375 C 27.316406 -4.125 25.929688 -2.523438 24.078125 -1.296875 C 22.222656 -0.078125 19.753906 0.53125 16.671875 0.53125 C 13.765625 0.53125 11.253906 -0.0195312 9.140625 -1.125 C 7.023438 -2.226562 5.390625 -3.867188 4.234375 -6.046875 C 3.085938 -8.234375 2.515625 -10.898438 2.515625 -14.046875 C 2.515625 -17.234375 3.117188 -19.921875 4.328125 -22.109375 C 5.535156 -24.304688 7.164062 -25.941406 9.21875 -27.015625 C 11.28125 -28.097656 13.59375 -28.640625 16.15625 -28.640625 C 20.132812 -28.640625 23.179688 -27.585938 25.296875 -25.484375 C 27.410156 -23.378906 28.46875 -20.285156 28.46875 -16.203125 C 28.46875 -14.722656 28.414062 -13.578125 28.3125 -12.765625 Z M 21.703125 -17.015625 C 21.640625 -19.160156 21.144531 -20.71875 20.21875 -21.6875 C 19.289062 -22.664062 17.9375 -23.15625 16.15625 -23.15625 C 12.582031 -23.15625 10.484375 -21.109375 9.859375 -17.015625 Z M 21.703125 -17.015625 "/></g></g></g><g fill="#000000" fill-opacity="1"><g transform="translate(533.906604, 323.707854)"><g/></g></g></svg>