<svg xmlns="http://www.w3.org/2000/svg" xmlns:xlink="http://www.w3.org/1999/xlink" width="940" zoomAndPan="magnify" viewBox="0 0 705 591.000005" height="788" preserveAspectRatio="xMidYMid meet" version="1.0"><defs><clipPath id="c0b0a1a77f"><path d="M 175.324219 112.605469 L 495.78125 112.605469 L 495.78125 450.285156 L 175.324219 450.285156 Z M 175.324219 112.605469 " clip-rule="nonzero"/></clipPath></defs><g clip-path="url(#c0b0a1a77f)"><path fill="#4ed2c7" d="M 335.644531 112.652344 C 296.257812 146.699219 243.015625 166.6875 175.324219 172.824219 C 180.46875 293.164062 238.660156 383.023438 335.644531 450.519531 C 432.632812 383.023438 490.625 293.164062 495.96875 172.824219 C 428.277344 166.6875 374.835938 146.699219 335.644531 112.652344 Z M 335.644531 112.652344 " fill-opacity="1" fill-rule="evenodd"/></g><path fill="#f1f2f2" d="M 465.289062 197.761719 C 418.972656 190.835938 374.042969 175.792969 335.644531 148.875 C 297.25 175.792969 252.316406 190.835938 205.804688 197.761719 C 216.691406 289.207031 262.414062 359.472656 335.644531 415.289062 C 408.878906 359.472656 454.402344 289.207031 465.289062 197.761719 Z M 465.289062 197.761719 " fill-opacity="1" fill-rule="evenodd"/><path fill="#0ad4bc" d="M 318.230469 297.71875 L 378.003906 237.941406 C 383.148438 232.597656 391.859375 232.597656 397.003906 237.941406 C 402.347656 243.089844 402.347656 251.601562 397.003906 256.945312 L 327.925781 326.023438 C 322.582031 331.5625 314.070312 331.367188 308.726562 326.21875 L 274.089844 291.582031 C 268.945312 286.238281 268.945312 277.726562 274.089844 272.582031 C 279.433594 267.238281 287.945312 267.238281 293.089844 272.582031 Z M 318.230469 297.71875 " fill-opacity="1" fill-rule="evenodd"/></svg>