<svg xmlns="http://www.w3.org/2000/svg" xmlns:xlink="http://www.w3.org/1999/xlink" width="940" zoomAndPan="magnify" viewBox="0 0 705 591.000005" height="788" preserveAspectRatio="xMidYMid meet" version="1.0"><defs><clipPath id="1b81d07437"><path d="M 257 154.785156 L 447.847656 154.785156 L 447.847656 390.636719 L 257 390.636719 Z M 257 154.785156 " clip-rule="nonzero"/></clipPath></defs><path fill="#40cbb4" d="M 426.011719 218.90625 C 424.050781 210.9375 421.46875 203.894531 418.296875 197.972656 C 417.792969 197.046875 417.285156 196.121094 416.699219 195.195312 C 413.777344 190.339844 409.960938 185.625 405.332031 181.136719 C 399.972656 175.886719 392.875 171.539062 384.230469 168.226562 C 375.53125 164.886719 364.167969 163.203125 350.417969 163.203125 C 321.9375 163.203125 300.554688 170.894531 286.859375 186.074219 C 273.054688 201.394531 266.066406 229.0625 266.066406 268.320312 C 266.066406 284.457031 267.46875 299.355469 270.277344 312.601562 C 273 325.648438 276.84375 336.003906 281.667969 343.382812 C 287.476562 352.476562 294.773438 359.714844 303.414062 364.933594 C 303.414062 364.933594 303.433594 364.941406 303.472656 364.960938 C 304.707031 365.71875 305.96875 366.421875 307.261719 367.09375 C 317.671875 372.480469 331.644531 375.203125 348.816406 375.203125 C 379.234375 375.203125 400.84375 366.730469 413.019531 350.035156 C 425.507812 332.917969 431.851562 305.191406 431.851562 267.589844 C 431.851562 250.78125 429.886719 234.394531 426.011719 218.90625 Z M 324.011719 325.929688 C 318.878906 315.324219 316.378906 296.523438 316.378906 268.460938 C 316.378906 240.398438 318.652344 222.160156 323.28125 211.609375 C 328.277344 200.21875 336.976562 194.183594 348.371094 194.183594 C 355.664062 194.183594 361.808594 196.570312 366.75 201.3125 C 369.441406 203.894531 371.800781 207.175781 373.738281 211.132812 C 378.871094 221.570312 381.367188 240.847656 381.367188 270.089844 C 381.367188 289.871094 380.300781 304.097656 378.140625 313.609375 C 375.867188 323.515625 372.191406 330.953125 367.199219 335.722656 C 362.007812 340.6875 355.75 343.214844 348.648438 343.214844 C 341.015625 343.214844 334.621094 340.296875 329.597656 334.515625 C 327.492188 332.160156 325.640625 329.269531 324.011719 325.929688 Z M 324.011719 325.929688 " fill-opacity="1" fill-rule="nonzero"/><path fill="#ffc928" d="M 380.609375 216.128906 C 377.1875 209.167969 372.472656 204.171875 366.75 201.3125 C 369.441406 203.894531 371.800781 207.175781 373.738281 211.132812 C 378.871094 221.570312 381.367188 240.847656 381.367188 270.089844 C 381.367188 289.871094 380.300781 304.097656 378.140625 313.609375 C 375.867188 323.515625 372.191406 330.953125 367.199219 335.722656 C 362.007812 340.6875 355.75 343.214844 348.648438 343.214844 C 341.015625 343.214844 334.621094 340.296875 329.597656 334.515625 C 336.753906 347.425781 346.855469 350.230469 354.261719 350.230469 C 361.671875 350.230469 368.320312 347.5625 373.792969 342.34375 C 379.039062 337.292969 382.773438 329.859375 385.128906 319.53125 C 387.316406 309.933594 388.382812 295.59375 388.382812 275.699219 C 388.382812 246.238281 385.832031 226.761719 380.609375 216.128906 Z M 405.332031 181.136719 C 399.972656 175.886719 392.875 171.539062 384.230469 168.226562 C 375.53125 164.886719 364.167969 163.203125 350.417969 163.203125 C 321.9375 163.203125 300.554688 170.894531 286.859375 186.074219 C 273.054688 201.394531 266.066406 229.0625 266.066406 268.320312 C 266.066406 284.457031 267.46875 299.355469 270.277344 312.601562 C 273 325.648438 276.84375 336.003906 281.667969 343.382812 C 287.476562 352.476562 294.773438 359.714844 303.414062 364.933594 C 297.664062 360.386719 292.667969 354.804688 288.460938 348.210938 C 283.71875 340.996094 279.957031 330.8125 277.234375 317.933594 C 274.484375 304.773438 273.082031 289.957031 273.082031 273.933594 C 273.082031 235.039062 279.957031 207.679688 293.511719 192.640625 C 306.921875 177.769531 327.96875 170.21875 356.03125 170.21875 C 369.613281 170.21875 380.808594 171.875 389.339844 175.160156 C 397.785156 178.386719 404.742188 182.621094 409.960938 187.730469 C 412.460938 190.144531 414.707031 192.640625 416.699219 195.195312 C 413.777344 190.339844 409.960938 185.625 405.332031 181.136719 Z M 380.609375 216.128906 C 377.1875 209.167969 372.472656 204.171875 366.75 201.3125 C 369.441406 203.894531 371.800781 207.175781 373.738281 211.132812 C 378.871094 221.570312 381.367188 240.847656 381.367188 270.089844 C 381.367188 289.871094 380.300781 304.097656 378.140625 313.609375 C 375.867188 323.515625 372.191406 330.953125 367.199219 335.722656 C 362.007812 340.6875 355.75 343.214844 348.648438 343.214844 C 341.015625 343.214844 334.621094 340.296875 329.597656 334.515625 C 336.753906 347.425781 346.855469 350.230469 354.261719 350.230469 C 361.671875 350.230469 368.320312 347.5625 373.792969 342.34375 C 379.039062 337.292969 382.773438 329.859375 385.128906 319.53125 C 387.316406 309.933594 388.382812 295.59375 388.382812 275.699219 C 388.382812 246.238281 385.832031 226.761719 380.609375 216.128906 Z M 380.609375 216.128906 C 377.1875 209.167969 372.472656 204.171875 366.75 201.3125 C 369.441406 203.894531 371.800781 207.175781 373.738281 211.132812 C 378.871094 221.570312 381.367188 240.847656 381.367188 270.089844 C 381.367188 289.871094 380.300781 304.097656 378.140625 313.609375 C 375.867188 323.515625 372.191406 330.953125 367.199219 335.722656 C 362.007812 340.6875 355.75 343.214844 348.648438 343.214844 C 341.015625 343.214844 334.621094 340.296875 329.597656 334.515625 C 336.753906 347.425781 346.855469 350.230469 354.261719 350.230469 C 361.671875 350.230469 368.320312 347.5625 373.792969 342.34375 C 379.039062 337.292969 382.773438 329.859375 385.128906 319.53125 C 387.316406 309.933594 388.382812 295.59375 388.382812 275.699219 C 388.382812 246.238281 385.832031 226.761719 380.609375 216.128906 Z M 380.609375 216.128906 " fill-opacity="1" fill-rule="nonzero"/><g clip-path="url(#1b81d07437)"><path fill="#000000" d="M 441.136719 222.160156 C 439.003906 213.40625 436.144531 205.605469 432.578125 198.953125 C 428.988281 192.21875 424.019531 185.738281 417.820312 179.703125 C 414.621094 176.589844 410.917969 173.726562 406.765625 171.230469 C 401.320312 166.878906 394.78125 163.261719 387.261719 160.371094 C 377.582031 156.667969 365.207031 154.785156 350.417969 154.785156 C 319.4375 154.785156 295.953125 163.402344 280.601562 180.460938 C 265.367188 197.355469 257.648438 226.929688 257.648438 268.320312 C 257.648438 285.015625 259.109375 300.507812 262.027344 314.339844 C 264.972656 328.425781 269.210938 339.734375 274.597656 347.957031 C 275.859375 349.949219 277.207031 351.859375 278.609375 353.679688 C 278.75 353.90625 278.890625 354.101562 279.03125 354.328125 C 286.609375 366.167969 296.484375 375.289062 308.355469 381.433594 C 320.167969 387.550781 335.65625 390.636719 354.429688 390.636719 C 388.160156 390.636719 412.433594 380.816406 426.574219 361.425781 C 440.296875 342.597656 447.285156 312.9375 447.285156 273.203125 C 447.285156 255.582031 445.207031 238.40625 441.136719 222.160156 Z M 413.019531 350.035156 C 400.84375 366.730469 379.234375 375.203125 348.816406 375.203125 C 331.644531 375.203125 317.671875 372.480469 307.261719 367.09375 C 305.96875 366.421875 304.707031 365.71875 303.472656 364.960938 C 303.472656 364.960938 303.453125 364.953125 303.414062 364.933594 C 294.773438 359.714844 287.476562 352.476562 281.667969 343.382812 C 276.84375 336.003906 273 325.648438 270.277344 312.601562 C 267.46875 299.355469 266.066406 284.457031 266.066406 268.320312 C 266.066406 229.0625 273.054688 201.394531 286.859375 186.074219 C 300.554688 170.894531 321.9375 163.203125 350.417969 163.203125 C 364.167969 163.203125 375.53125 164.886719 384.230469 168.226562 C 392.875 171.539062 399.972656 175.886719 405.332031 181.136719 C 409.960938 185.625 413.777344 190.339844 416.699219 195.195312 C 417.285156 196.121094 417.792969 197.046875 418.296875 197.972656 C 421.46875 203.894531 424.050781 210.9375 426.011719 218.90625 C 429.886719 234.394531 431.851562 250.78125 431.851562 267.589844 C 431.851562 305.191406 425.507812 332.917969 413.019531 350.035156 Z M 413.019531 350.035156 " fill-opacity="1" fill-rule="nonzero"/></g><path fill="#000000" d="M 373.738281 211.132812 C 371.800781 207.175781 369.441406 203.894531 366.75 201.3125 C 361.808594 196.570312 355.664062 194.183594 348.371094 194.183594 C 336.976562 194.183594 328.277344 200.21875 323.28125 211.609375 C 318.652344 222.160156 316.378906 240.765625 316.378906 268.460938 C 316.378906 296.15625 318.878906 315.324219 324.011719 325.929688 C 325.640625 329.269531 327.492188 332.160156 329.597656 334.515625 C 334.621094 340.296875 341.015625 343.214844 348.648438 343.214844 C 355.75 343.214844 362.007812 340.6875 367.199219 335.722656 C 372.191406 330.953125 375.867188 323.515625 378.140625 313.609375 C 380.300781 304.097656 381.367188 289.871094 381.367188 270.089844 C 381.367188 240.847656 378.871094 221.570312 373.738281 211.132812 Z M 369.921875 311.730469 C 368.039062 320.007812 365.179688 326.011719 361.390625 329.632812 C 357.742188 333.113281 353.589844 334.796875 348.648438 334.796875 C 346.515625 334.796875 344.523438 334.460938 342.699219 333.757812 C 341.214844 332.128906 339.8125 330.027344 338.464844 327.277344 C 334.058594 318.128906 331.8125 300.253906 331.8125 274.074219 C 331.8125 247.890625 333.863281 230.328125 337.902344 221.148438 C 341.355469 213.292969 346.460938 209.617188 353.980469 209.617188 C 358.835938 209.617188 362.765625 211.160156 365.933594 214.414062 C 366.046875 214.554688 366.105469 214.695312 366.1875 214.863281 C 370.675781 223.984375 372.949219 242.5625 372.949219 270.089844 C 372.949219 288.945312 371.941406 302.976562 369.921875 311.730469 Z M 369.921875 311.730469 " fill-opacity="1" fill-rule="nonzero"/></svg>